<svg width="18" height="14" viewBox="0 0 18 14" fill="none" xmlns="http://www.w3.org/2000/svg">
<path fill-rule="evenodd" clip-rule="evenodd" d="M10.8558 -1.42347C11.4798 -1.7199 12.1544 -1.87494 12.8397 -1.87494C13.525 -1.87494 14.1996 -1.7199 14.8236 -1.42347C15.4471 -1.1273 16.0042 -0.697626 16.4674 -0.166375C16.9304 0.364332 17.2919 0.987498 17.5366 1.66474C17.7814 2.34211 17.9062 3.06445 17.9062 3.79149C17.9062 4.51853 17.7814 5.24087 17.5366 5.91824C17.2918 6.59563 16.9303 7.21891 16.4671 7.7497L9.88874 15.2919C9.7041 15.5036 9.43694 15.6251 9.15605 15.6251C8.87516 15.6251 8.608 15.5036 8.42337 15.2919L1.84487 7.74953C0.911978 6.67995 0.40625 5.25453 0.40625 3.79149C0.40625 2.32845 0.911978 0.90303 1.84487 -0.166545C2.78144 -1.24035 4.08253 -1.87448 5.47239 -1.87448C6.86225 -1.87448 8.16334 -1.24035 9.09991 -0.166545C9.11972 -0.143839 9.13845 -0.120231 9.15605 -0.0957987C9.17361 -0.12017 9.19229 -0.143721 9.21204 -0.166375C9.67519 -0.697626 10.2323 -1.1273 10.8558 -1.42347ZM12.8397 0.0695055C12.4497 0.0695055 12.0596 0.157372 11.6901 0.332866C11.3379 0.500188 11.008 0.745702 10.7208 1.06285L9.97196 2.21856C9.79274 2.49514 9.48562 2.6621 9.15605 2.6621C8.82649 2.6621 8.51936 2.49514 8.34014 2.21856L7.59132 1.06293C6.99828 0.408115 6.23541 0.0699615 5.47239 0.0699615C4.6907 0.0699615 3.90918 0.424863 3.31024 1.11156C2.70761 1.80248 2.35069 2.76481 2.35069 3.79149C2.35069 4.81817 2.70761 5.7805 3.31024 6.47142L9.15605 13.1737L15.0019 6.47142C15.2992 6.13064 15.5411 5.71893 15.7079 5.25735C15.8748 4.79576 15.9618 4.29732 15.9618 3.79149C15.9618 3.28566 15.8748 2.78722 15.7079 2.32563C15.5411 1.86405 15.2994 1.45251 15.002 1.11173C14.705 0.771009 14.3593 0.508628 13.9893 0.332866C13.6199 0.157372 13.2297 0.0695055 12.8397 0.0695055Z" fill="#7C7B7B"/>
</svg>
