<svg width="20" height="21" viewBox="0 0 20 21" fill="none" xmlns="http://www.w3.org/2000/svg">
<path fill-rule="evenodd" clip-rule="evenodd" d="M9.99976 18.5001C14.418 18.5001 17.9998 14.9184 17.9998 10.5001C17.9998 6.08184 14.418 2.50012 9.99976 2.50012C5.58148 2.50012 1.99976 6.08184 1.99976 10.5001C1.99976 14.9184 5.58148 18.5001 9.99976 18.5001ZM9.27166 6.79044C9.66361 7.17954 9.66591 7.8127 9.27682 8.20465L8.03478 9.45576L14.0011 9.45577C14.5534 9.45577 15.0011 9.90348 15.0011 10.4558C15.0011 11.008 14.5534 11.4558 14.0011 11.4558L7.94671 11.4558L9.27682 12.7956C9.66591 13.1875 9.66361 13.8207 9.27166 14.2098C8.87972 14.5989 8.24656 14.5966 7.85746 14.2046L5.57865 11.9092C4.80446 11.1293 4.80446 9.87092 5.57865 9.09107L7.85746 6.7956C8.24656 6.40365 8.87972 6.40134 9.27166 6.79044Z" fill="white"/>
<path fill-rule="evenodd" clip-rule="evenodd" d="M9.99976 18.5001C14.418 18.5001 17.9998 14.9184 17.9998 10.5001C17.9998 6.08184 14.418 2.50012 9.99976 2.50012C5.58148 2.50012 1.99976 6.08184 1.99976 10.5001C1.99976 14.9184 5.58148 18.5001 9.99976 18.5001ZM9.99976 20.5001C15.5226 20.5001 19.9998 16.023 19.9998 10.5001C19.9998 4.97727 15.5226 0.500122 9.99976 0.500122C4.47691 0.500122 -0.000244141 4.97727 -0.000244141 10.5001C-0.000244141 16.023 4.47691 20.5001 9.99976 20.5001Z" fill="white"/>
</svg>
