<svg width="20" height="21" viewBox="0 0 20 21" fill="none" xmlns="http://www.w3.org/2000/svg">
<path fill-rule="evenodd" clip-rule="evenodd" d="M9.99976 18.5001C5.58148 18.5001 1.99976 14.9184 1.99976 10.5001C1.99976 6.08184 5.58148 2.50012 9.99976 2.50012C14.418 2.50012 17.9998 6.08184 17.9998 10.5001C17.9998 14.9184 14.418 18.5001 9.99976 18.5001ZM10.7278 6.79044C10.3359 7.17954 10.3336 7.8127 10.7227 8.20465L11.9647 9.45576L5.9984 9.45577C5.44611 9.45577 4.9984 9.90348 4.9984 10.4558C4.9984 11.008 5.44611 11.4558 5.9984 11.4558L12.0528 11.4558L10.7227 12.7956C10.3336 13.1875 10.3359 13.8207 10.7278 14.2098C11.1198 14.5989 11.753 14.5966 12.1421 14.2046L14.4209 11.9092C15.195 11.1293 15.195 9.87092 14.4209 9.09107L12.1421 6.7956C11.753 6.40365 11.1198 6.40134 10.7278 6.79044Z" fill="white"/>
<path fill-rule="evenodd" clip-rule="evenodd" d="M9.99976 18.5001C5.58148 18.5001 1.99976 14.9184 1.99976 10.5001C1.99976 6.08184 5.58148 2.50012 9.99976 2.50012C14.418 2.50012 17.9998 6.08184 17.9998 10.5001C17.9998 14.9184 14.418 18.5001 9.99976 18.5001ZM9.99976 20.5001C4.47691 20.5001 -0.000244141 16.023 -0.000244141 10.5001C-0.000244141 4.97727 4.47691 0.500122 9.99976 0.500122C15.5226 0.500122 19.9998 4.97727 19.9998 10.5001C19.9998 16.023 15.5226 20.5001 9.99976 20.5001Z" fill="white"/>
</svg>
