<svg width="100" height="24" viewBox="0 0 100 24" fill="none" xmlns="http://www.w3.org/2000/svg">
<path fill-rule="evenodd" clip-rule="evenodd" d="M2.23311 1.95035C3.55403 0.629436 5.43746 0 7.67853 0C11.7599 0 13.7846 2.74369 14.3258 4.36751L10.5311 5.63241C10.4058 5.25624 9.6638 3.99997 7.67853 3.99997C6.16963 3.99997 5.42809 4.41219 5.06152 4.77876C4.6889 5.15137 4.42856 5.75203 4.42856 6.66661C4.42856 7.4945 4.64485 7.96991 5.0645 8.39778C5.57949 8.92285 6.51666 9.48599 8.21866 10.129C10.2723 10.9048 11.8422 11.8748 12.9012 13.1223C14.0037 14.4212 14.4285 15.8751 14.4285 17.3332C14.4285 18.899 13.8044 20.5288 12.5251 21.7624C11.2259 23.0153 9.37015 23.7498 7.0952 23.7498C5.01704 23.7498 3.45282 23.0578 2.33601 22.104C1.25741 21.1829 0.694216 20.104 0.415771 19.4357L4.10805 17.8973C4.24627 18.229 4.49973 18.6918 4.93362 19.0623C5.3293 19.4002 5.97339 19.7498 7.0952 19.7498C8.48689 19.7498 9.29782 19.3177 9.74858 18.8831C10.2193 18.4292 10.4285 17.8507 10.4285 17.3332C10.4285 16.708 10.2699 16.2035 9.85168 15.7108C9.38978 15.1666 8.50136 14.5116 6.80507 13.8708C4.9509 13.1704 3.34643 12.3585 2.20882 11.1986C0.97586 9.94154 0.428592 8.42204 0.428592 6.66661C0.428592 4.99787 0.918241 3.26522 2.23311 1.95035Z" fill="#FF4338"/>
<path fill-rule="evenodd" clip-rule="evenodd" d="M16.747 8.66664C16.747 4.34045 20.2541 0.833374 24.5803 0.833374C28.9064 0.833374 32.4135 4.34045 32.4135 8.66664V15.9999C32.4135 20.3261 28.9064 23.8332 24.5803 23.8332C20.2541 23.8332 16.747 20.3261 16.747 15.9999V8.66664ZM24.5803 4.83334C22.4632 4.83334 20.747 6.54957 20.747 8.66664V15.9999C20.747 18.117 22.4632 19.8332 24.5803 19.8332C26.6973 19.8332 28.4136 18.117 28.4136 15.9999V8.66664C28.4136 6.54957 26.6973 4.83334 24.5803 4.83334Z" fill="#FFC843"/>
<path fill-rule="evenodd" clip-rule="evenodd" d="M66.7484 8.49989C66.7484 4.1737 70.2555 0.666626 74.5817 0.666626C78.9079 0.666626 82.415 4.1737 82.415 8.49989V23.9998H78.415V8.49989C78.415 6.38282 76.6988 4.66659 74.5817 4.66659C72.4646 4.66659 70.7484 6.38282 70.7484 8.49989V23.9998H66.7484V8.49989Z" fill="#00B3E3"/>
<rect x="34.5805" y="0.666626" width="3.99997" height="23.3331" fill="#00B3E3"/>
<rect x="50.5813" y="0.666809" width="3.99997" height="23.3331" fill="#00B3E3"/>
<path d="M86.0843 4.66656H90.0843V23.9997H86.0843V4.66656Z" fill="#DA3AB3"/>
<rect x="34.5805" y="19.9998" width="13.3332" height="3.99997" fill="#DA3AB3"/>
<rect x="50.5813" y="19.9998" width="13.3332" height="3.99997" fill="#DA3AB3"/>
<rect x="34.5805" y="19.9998" width="3.99997" height="3.99997" fill="#00299F"/>
<rect x="50.5813" y="19.9998" width="3.99997" height="3.99997" fill="#00299F"/>
<rect x="66.7484" y="11.4999" width="15.6665" height="3.99997" fill="#FF4338"/>
<path fill-rule="evenodd" clip-rule="evenodd" d="M92.7468 4.66659H84.2468V0.666626H92.7468C96.5207 0.666626 99.5801 3.72599 99.5801 7.4999C99.5801 11.2738 96.5207 14.3332 92.7468 14.3332H86.0802V10.3332H92.7468C94.3116 10.3332 95.5801 9.06469 95.5801 7.4999C95.5801 5.93511 94.3116 4.66659 92.7468 4.66659Z" fill="#FFC843"/>
<path fill-rule="evenodd" clip-rule="evenodd" d="M92.9176 14.3332H86.0843V10.3333H92.9176C96.5995 10.3333 99.5842 13.318 99.5842 16.9999V23.9998H95.5843V16.9999C95.5843 15.5271 94.3904 14.3332 92.9176 14.3332Z" fill="#00B3E3"/>
<path d="M86.0843 10.3333V14.3332H92.751C94.662 14.3332 96.3898 13.5487 97.63 12.2842C96.4237 11.0788 94.7577 10.3333 92.9176 10.3333H86.0843Z" fill="#008C3C"/>
<rect x="66.7484" y="11.4999" width="3.99997" height="3.99997" fill="#002F32"/>
<rect x="78.4156" y="11.4999" width="3.99997" height="3.99997" fill="#002F32"/>
<rect x="86.0843" y="10.3333" width="3.99997" height="3.99997" fill="#002F32"/>
<rect x="86.0843" y="10.3333" width="3.99997" height="3.99997" fill="#002F32"/>
<path d="M84.2468 0.666626H86.0802C88.2893 0.666626 90.0801 2.45747 90.0801 4.66659H84.2468V0.666626Z" fill="#DA2D2F"/>
</svg>
