<svg width="220" height="34" viewBox="0 0 220 34" fill="none" xmlns="http://www.w3.org/2000/svg">
<path d="M9.988 32.648L0 1.848H8.976L17.38 28.512H12.848L21.692 1.848H29.7L38.06 28.512H33.704L42.372 1.848H50.688L40.7 32.648H31.372L24.244 9.988H26.752L19.316 32.648H9.988Z" fill="white"/>
<path d="M64.1479 33.044C61.3319 33.044 58.8679 32.516 56.7559 31.46C54.6732 30.3747 53.0452 28.908 51.8719 27.06C50.7279 25.1827 50.1559 23.056 50.1559 20.68C50.1559 18.304 50.7132 16.192 51.8279 14.344C52.9719 12.4667 54.5412 11.0147 56.5359 9.988C58.5305 8.932 60.7745 8.404 63.2679 8.404C65.6145 8.404 67.7559 8.888 69.6919 9.856C71.6279 10.7947 73.1679 12.188 74.3119 14.036C75.4559 15.884 76.0279 18.128 76.0279 20.768C76.0279 21.0613 76.0132 21.3987 75.9839 21.78C75.9545 22.1613 75.9252 22.5133 75.8959 22.836H57.0199V18.436H71.4519L68.2839 19.668C68.3132 18.5827 68.1079 17.644 67.6679 16.852C67.2572 16.06 66.6705 15.444 65.9079 15.004C65.1745 14.564 64.3092 14.344 63.3119 14.344C62.3145 14.344 61.4345 14.564 60.6719 15.004C59.9385 15.444 59.3665 16.0747 58.9559 16.896C58.5452 17.688 58.3399 18.6267 58.3399 19.712V20.988C58.3399 22.1613 58.5745 23.1733 59.0439 24.024C59.5425 24.8747 60.2465 25.5347 61.1559 26.004C62.0652 26.444 63.1505 26.664 64.4119 26.664C65.5852 26.664 66.5825 26.5027 67.4039 26.18C68.2545 25.828 69.0905 25.3 69.9119 24.596L74.3119 29.172C73.1679 30.4333 71.7599 31.4013 70.0879 32.076C68.4159 32.7213 66.4359 33.044 64.1479 33.044Z" fill="white"/>
<path d="M79.8823 32.648V0H88.2423V32.648H79.8823Z" fill="white"/>
<path d="M105.863 33.044C103.223 33.044 100.862 32.516 98.7793 31.46C96.726 30.404 95.1126 28.952 93.9393 27.104C92.766 25.2267 92.1793 23.0853 92.1793 20.68C92.1793 18.2747 92.766 16.148 93.9393 14.3C95.1126 12.452 96.726 11.0147 98.7793 9.988C100.862 8.932 103.223 8.404 105.863 8.404C108.562 8.404 110.894 8.976 112.859 10.12C114.825 11.264 116.218 12.8773 117.039 14.96L110.571 18.26C110.014 17.1453 109.325 16.3387 108.503 15.84C107.682 15.312 106.787 15.048 105.819 15.048C104.851 15.048 103.971 15.268 103.179 15.708C102.387 16.148 101.757 16.7933 101.287 17.644C100.847 18.4653 100.627 19.4773 100.627 20.68C100.627 21.912 100.847 22.9533 101.287 23.804C101.757 24.6547 102.387 25.3 103.179 25.74C103.971 26.18 104.851 26.4 105.819 26.4C106.787 26.4 107.682 26.1507 108.503 25.652C109.325 25.124 110.014 24.3027 110.571 23.188L117.039 26.488C116.218 28.5707 114.825 30.184 112.859 31.328C110.894 32.472 108.562 33.044 105.863 33.044Z" fill="white"/>
<path d="M131.897 33.044C129.287 33.044 126.969 32.516 124.945 31.46C122.921 30.404 121.323 28.952 120.149 27.104C119.005 25.2267 118.433 23.0853 118.433 20.68C118.433 18.2747 119.005 16.148 120.149 14.3C121.323 12.452 122.921 11.0147 124.945 9.988C126.969 8.932 129.287 8.404 131.897 8.404C134.508 8.404 136.825 8.932 138.849 9.988C140.903 11.0147 142.501 12.452 143.645 14.3C144.789 16.148 145.361 18.2747 145.361 20.68C145.361 23.0853 144.789 25.2267 143.645 27.104C142.501 28.952 140.903 30.404 138.849 31.46C136.825 32.516 134.508 33.044 131.897 33.044ZM131.897 26.4C132.865 26.4 133.716 26.18 134.449 25.74C135.212 25.3 135.813 24.6547 136.253 23.804C136.693 22.924 136.913 21.8827 136.913 20.68C136.913 19.4773 136.693 18.4653 136.253 17.644C135.813 16.7933 135.212 16.148 134.449 15.708C133.716 15.268 132.865 15.048 131.897 15.048C130.959 15.048 130.108 15.268 129.345 15.708C128.612 16.148 128.011 16.7933 127.541 17.644C127.101 18.4653 126.881 19.4773 126.881 20.68C126.881 21.8827 127.101 22.924 127.541 23.804C128.011 24.6547 128.612 25.3 129.345 25.74C130.108 26.18 130.959 26.4 131.897 26.4Z" fill="white"/>
<path d="M180.298 8.404C182.146 8.404 183.789 8.78533 185.226 9.548C186.693 10.2813 187.837 11.4253 188.658 12.98C189.509 14.5347 189.934 16.544 189.934 19.008V32.648H181.574V20.372C181.574 18.6707 181.251 17.4387 180.606 16.676C179.961 15.884 179.081 15.488 177.966 15.488C177.174 15.488 176.455 15.6787 175.81 16.06C175.165 16.4413 174.666 17.028 174.314 17.82C173.962 18.5827 173.786 19.58 173.786 20.812V32.648H165.426V20.372C165.426 18.6707 165.103 17.4387 164.458 16.676C163.842 15.884 162.962 15.488 161.818 15.488C160.997 15.488 160.263 15.6787 159.618 16.06C159.002 16.4413 158.503 17.028 158.122 17.82C157.77 18.5827 157.594 19.58 157.594 20.812V32.648H149.234V8.8H157.198V15.444L155.614 13.552C156.494 11.8507 157.697 10.5747 159.222 9.724C160.747 8.844 162.449 8.404 164.326 8.404C166.467 8.404 168.345 8.96134 169.958 10.076C171.601 11.1613 172.701 12.8627 173.258 15.18L170.53 14.608C171.381 12.672 172.657 11.1613 174.358 10.076C176.089 8.96134 178.069 8.404 180.298 8.404Z" fill="white"/>
<path d="M208.007 33.044C205.191 33.044 202.727 32.516 200.615 31.46C198.533 30.3747 196.905 28.908 195.731 27.06C194.587 25.1827 194.015 23.056 194.015 20.68C194.015 18.304 194.573 16.192 195.687 14.344C196.831 12.4667 198.401 11.0147 200.395 9.988C202.39 8.932 204.634 8.404 207.127 8.404C209.474 8.404 211.615 8.888 213.551 9.856C215.487 10.7947 217.027 12.188 218.171 14.036C219.315 15.884 219.887 18.128 219.887 20.768C219.887 21.0613 219.873 21.3987 219.843 21.78C219.814 22.1613 219.785 22.5133 219.755 22.836H200.879V18.436H215.311L212.143 19.668C212.173 18.5827 211.967 17.644 211.527 16.852C211.117 16.06 210.53 15.444 209.767 15.004C209.034 14.564 208.169 14.344 207.171 14.344C206.174 14.344 205.294 14.564 204.531 15.004C203.798 15.444 203.226 16.0747 202.815 16.896C202.405 17.688 202.199 18.6267 202.199 19.712V20.988C202.199 22.1613 202.434 23.1733 202.903 24.024C203.402 24.8747 204.106 25.5347 205.015 26.004C205.925 26.444 207.01 26.664 208.271 26.664C209.445 26.664 210.442 26.5027 211.263 26.18C212.114 25.828 212.95 25.3 213.771 24.596L218.171 29.172C217.027 30.4333 215.619 31.4013 213.947 32.076C212.275 32.7213 210.295 33.044 208.007 33.044Z" fill="white"/>
</svg>
